# This file uses centimeters as units for non-parametric coordinates.

mtllib obstacle.mtl
g default
v -1.498337 0.000000 0.080949
v -1.408609 0.000000 0.170677
v -1.426114 0.000000 0.168953
v -1.442946 0.000000 0.163847
v -1.458459 0.000000 0.155555
v -1.472056 0.000000 0.144396
v -1.483215 0.000000 0.130799
v -1.491507 0.000000 0.115286
v -1.496613 0.000000 0.098454
v -1.498337 0.499966 0.080949
v -1.496613 0.499966 0.098454
v -1.491507 0.499966 0.115286
v -1.483215 0.499966 0.130799
v -1.472056 0.499966 0.144396
v -1.458459 0.499966 0.155555
v -1.442946 0.499966 0.163847
v -1.426114 0.499966 0.168953
v -1.408609 0.499966 0.170677
v 1.498337 0.000000 0.080949
v 1.496613 0.000000 0.098454
v 1.491507 0.000000 0.115286
v 1.483215 0.000000 0.130799
v 1.472056 0.000000 0.144396
v 1.458459 0.000000 0.155555
v 1.442946 0.000000 0.163847
v 1.426114 0.000000 0.168953
v 1.408609 0.000000 0.170677
v 1.498337 0.499966 0.080949
v 1.408609 0.499966 0.170677
v 1.426114 0.499966 0.168953
v 1.442946 0.499966 0.163847
v 1.458459 0.499966 0.155555
v 1.472056 0.499966 0.144396
v 1.483215 0.499966 0.130799
v 1.491507 0.499966 0.115286
v 1.496613 0.499966 0.098454
v -1.426114 0.499966 -0.168953
v -1.442946 0.499966 -0.163847
v -1.458459 0.499966 -0.155555
v -1.472056 0.499966 -0.144396
v -1.483215 0.499966 -0.130799
v -1.491507 0.499966 -0.115286
v -1.496613 0.499966 -0.098454
v -1.498337 0.499966 -0.080949
v -1.408609 0.499966 -0.170677
v -1.498337 0.000000 -0.080949
v -1.496613 0.000000 -0.098454
v -1.491507 0.000000 -0.115286
v -1.483215 0.000000 -0.130799
v -1.472056 0.000000 -0.144396
v -1.458459 0.000000 -0.155555
v -1.442946 0.000000 -0.163847
v -1.426114 0.000000 -0.168953
v -1.408609 0.000000 -0.170677
v 1.496613 0.499966 -0.098454
v 1.491507 0.499966 -0.115286
v 1.483215 0.499966 -0.130799
v 1.472056 0.499966 -0.144396
v 1.458459 0.499966 -0.155555
v 1.442946 0.499966 -0.163847
v 1.426114 0.499966 -0.168953
v 1.408609 0.499966 -0.170677
v 1.498337 0.499966 -0.080949
v 1.498337 0.000000 -0.080949
v 1.408609 0.000000 -0.170677
v 1.426114 0.000000 -0.168953
v 1.442946 0.000000 -0.163847
v 1.458459 0.000000 -0.155555
v 1.472056 0.000000 -0.144396
v 1.483215 0.000000 -0.130799
v 1.491507 0.000000 -0.115286
v 1.496613 0.000000 -0.098454
vt 0.386542 0.000000
vt 0.190715 0.000000
vt 0.309285 0.250000
vt 0.690715 -0.000000
vt 0.809285 0.250000
vt 0.309285 0.000000
vt 0.386542 0.250000
vt 0.613458 -0.000000
vt 0.690715 0.250000
vt 0.190715 0.250000
vt 0.386542 0.750000
vt 0.613458 0.500000
vt 0.809285 -0.000000
vt 0.386542 0.500000
vt 0.375000 0.434285
vt 0.375000 0.315715
vt 0.613458 0.250000
vt 0.625000 0.315715
vt 0.625000 0.434285
vt 0.625000 0.815715
vt 0.625000 0.934285
vt 0.613458 1.000000
vt 0.386542 1.000000
vt 0.375000 0.934285
vt 0.375000 0.815715
vt 0.613458 0.750000
vt -0.000000 -0.000000
vt 0.385166 0.000000
vt -0.000000 -0.000000
vt 0.382862 0.000000
vt -0.000000 -0.000000
vt 0.379455 0.000000
vt 0.375000 1.000000
vt 0.375000 0.000000
vt -0.000000 -0.000000
vt 0.360824 -0.000000
vt -0.000000 -0.000000
vt 0.344746 -0.000000
vt -0.000000 -0.000000
vt 0.327351 -0.000000
vt 0.327351 0.250000
vt -0.000000 -0.000000
vt 0.344746 0.250000
vt -0.000000 -0.000000
vt 0.360824 0.250000
vt -0.000000 -0.000000
vt 0.375000 0.250000
vt 0.379455 0.250000
vt 0.382862 0.250000
vt 0.385166 0.250000
vt -0.000000 -0.000000
vt 0.672649 -0.000000
vt -0.000000 -0.000000
vt 0.655254 -0.000000
vt -0.000000 -0.000000
vt 0.639176 -0.000000
vt 0.625000 1.000000
vt 0.625000 0.000000
vt -0.000000 -0.000000
vt 0.620545 -0.000000
vt -0.000000 -0.000000
vt 0.617138 -0.000000
vt -0.000000 -0.000000
vt 0.614834 -0.000000
vt 0.614834 0.250000
vt 0.617138 0.250000
vt 0.620545 0.250000
vt 0.625000 0.250000
vt 0.639176 0.250000
vt -0.000000 -0.000000
vt 0.655254 0.250000
vt -0.000000 -0.000000
vt 0.672649 0.250000
vt -0.000000 -0.000000
vt 0.385166 0.500000
vt 0.382862 0.500000
vt 0.379455 0.500000
vt 0.375000 0.500000
vt 0.125000 0.250000
vt -0.000000 -0.000000
vt 0.139176 0.250000
vt -0.000000 -0.000000
vt 0.155254 0.250000
vt -0.000000 -0.000000
vt 0.172649 0.250000
vt 0.172649 -0.000000
vt -0.000000 -0.000000
vt 0.155254 -0.000000
vt -0.000000 -0.000000
vt 0.139176 -0.000000
vt -0.000000 -0.000000
vt 0.375000 0.750000
vt 0.125000 0.000000
vt 0.379455 0.750000
vt 0.382862 0.750000
vt 0.385166 0.750000
vt -0.000000 -0.000000
vt 0.827351 0.250000
vt -0.000000 -0.000000
vt 0.844746 0.250000
vt -0.000000 -0.000000
vt 0.860824 0.250000
vt 0.625000 0.500000
vt 0.875000 0.250000
vt 0.620545 0.500000
vt 0.617138 0.500000
vt 0.614834 0.500000
vt 0.614834 0.750000
vt 0.617138 0.750000
vt 0.620545 0.750000
vt 0.875000 0.000000
vt 0.625000 0.750000
vt 0.860824 -0.000000
vt -0.000000 -0.000000
vt 0.844746 -0.000000
vt -0.000000 -0.000000
vt 0.827351 -0.000000
vt -0.000000 -0.000000
vn -0.000608 0.000000 1.000000
vn -0.000608 0.000000 1.000000
vn 0.000608 0.000000 1.000000
vn 0.000608 0.000000 1.000000
vn -0.000608 0.000000 -1.000000
vn -0.000608 0.000000 -1.000000
vn 0.000608 0.000000 -1.000000
vn 0.000608 0.000000 -1.000000
vn 0.999954 0.000000 0.009608
vn 0.999954 0.000000 0.009608
vn 0.999954 0.000000 -0.009608
vn 0.999954 0.000000 -0.009608
vn -0.999954 0.000000 -0.009610
vn -0.999954 0.000000 -0.009610
vn -0.999954 0.000000 0.009610
vn -0.999954 0.000000 0.009610
vn -0.980785 0.000000 0.195091
vn -0.980785 0.000000 0.195091
vn -0.923880 0.000000 0.382682
vn -0.923880 0.000000 0.382682
vn -0.831470 0.000000 0.555570
vn -0.831470 0.000000 0.555570
vn -0.707106 0.000000 0.707107
vn -0.707106 0.000000 0.707107
vn -0.555570 0.000000 0.831470
vn -0.555570 0.000000 0.831470
vn -0.382683 0.000000 0.923880
vn -0.382683 0.000000 0.923880
vn -0.195090 0.000000 0.980785
vn -0.195090 0.000000 0.980785
vn 0.195089 0.000000 0.980786
vn 0.195089 0.000000 0.980786
vn 0.382683 0.000000 0.923880
vn 0.382683 0.000000 0.923880
vn 0.555576 0.000000 0.831466
vn 0.555576 0.000000 0.831466
vn 0.707105 0.000000 0.707109
vn 0.707105 0.000000 0.707109
vn 0.831465 0.000000 0.555577
vn 0.831465 0.000000 0.555577
vn 0.923879 0.000000 0.382684
vn 0.923879 0.000000 0.382684
vn 0.980788 0.000000 0.195079
vn 0.980788 0.000000 0.195079
vn -0.980785 0.000000 -0.195091
vn -0.980785 0.000000 -0.195091
vn -0.923880 0.000000 -0.382682
vn -0.923880 0.000000 -0.382682
vn -0.831470 0.000000 -0.555570
vn -0.831470 0.000000 -0.555570
vn -0.707107 0.000000 -0.707107
vn -0.707107 0.000000 -0.707107
vn -0.555572 0.000000 -0.831469
vn -0.555572 0.000000 -0.831469
vn -0.382683 0.000000 -0.923880
vn -0.382683 0.000000 -0.923880
vn -0.195090 0.000000 -0.980785
vn -0.195090 0.000000 -0.980785
vn 0.195088 0.000000 -0.980786
vn 0.195088 0.000000 -0.980786
vn 0.382683 0.000000 -0.923880
vn 0.382683 0.000000 -0.923880
vn 0.555578 0.000000 -0.831465
vn 0.555578 0.000000 -0.831465
vn 0.707105 0.000000 -0.707109
vn 0.707105 0.000000 -0.707109
vn 0.831465 0.000000 -0.555578
vn 0.831465 0.000000 -0.555578
vn 0.923879 0.000000 -0.382684
vn 0.923879 0.000000 -0.382684
vn 0.980788 0.000000 -0.195079
vn 0.980788 0.000000 -0.195079
vn 0.000000 1.000000 0.000000
vn 0.000000 1.000000 0.000000
vn 0.000000 1.000000 0.000000
vn 0.000000 1.000000 0.000000
vn 0.000000 1.000000 0.000000
vn 0.000000 1.000000 0.000000
vn 0.000000 1.000000 0.000000
vn 0.000000 1.000000 0.000000
vn 0.000000 1.000000 0.000000
vn 0.000000 1.000000 0.000000
vn 0.000000 1.000000 0.000000
vn 0.000000 1.000000 0.000000
vn 0.000000 1.000000 0.000000
vn 0.000000 1.000000 0.000000
vn 0.000000 1.000000 0.000000
vn 0.000000 1.000000 0.000000
vn 0.000000 1.000000 0.000000
vn 0.000000 1.000000 0.000000
vn 0.000000 1.000000 0.000000
vn 0.000000 1.000000 0.000000
vn 0.000000 1.000000 0.000000
vn 0.000000 1.000000 0.000000
vn 0.000000 1.000000 0.000000
vn 0.000000 1.000000 0.000000
vn 0.000000 1.000000 0.000000
vn 0.000000 1.000000 0.000000
vn 0.000000 1.000000 0.000000
vn 0.000000 1.000000 0.000000
vn 0.000000 1.000000 0.000000
vn 0.000000 1.000000 0.000000
vn 0.000000 1.000000 0.000000
vn 0.000000 1.000000 0.000000
vn 0.000000 1.000000 0.000000
vn 0.000000 1.000000 0.000000
vn 0.000000 1.000000 0.000000
vn 0.000000 1.000000 0.000000
vn 0.000000 -1.000000 0.000000
vn 0.000000 -1.000000 0.000000
vn 0.000000 -1.000000 0.000000
vn 0.000000 -1.000000 0.000000
vn 0.000000 -1.000000 0.000000
vn 0.000000 -1.000000 0.000000
vn 0.000000 -1.000000 0.000000
vn 0.000000 -1.000000 0.000000
vn 0.000000 -1.000000 0.000000
vn 0.000000 -1.000000 0.000000
vn 0.000000 -1.000000 0.000000
vn 0.000000 -1.000000 0.000000
vn 0.000000 -1.000000 0.000000
vn 0.000000 -1.000000 0.000000
vn 0.000000 -1.000000 0.000000
vn 0.000000 -1.000000 0.000000
vn 0.000000 -1.000000 0.000000
vn 0.000000 -1.000000 0.000000
vn 0.000000 -1.000000 0.000000
vn 0.000000 -1.000000 0.000000
vn 0.000000 -1.000000 0.000000
vn 0.000000 -1.000000 0.000000
vn 0.000000 -1.000000 0.000000
vn 0.000000 -1.000000 0.000000
vn 0.000000 -1.000000 0.000000
vn 0.000000 -1.000000 0.000000
vn 0.000000 -1.000000 0.000000
vn 0.000000 -1.000000 0.000000
vn 0.000000 -1.000000 0.000000
vn 0.000000 -1.000000 0.000000
vn 0.000000 -1.000000 0.000000
vn 0.000000 -1.000000 0.000000
vn 0.000000 -1.000000 0.000000
vn 0.000000 -1.000000 0.000000
vn 0.000000 -1.000000 0.000000
vn 0.000000 -1.000000 0.000000
s 1
g Obstacle
usemtl aiStandardSurface2SG
f 18/7/1 2/1/2 27/8/3 29/17/4
f 54/11/5 45/14/6 62/12/7 65/26/8
f 28/9/9 19/4/10 64/13/11 63/5/12
f 44/10/13 46/2/14 1/6/15 10/3/16
f 1/6/15 9/40/17 11/41/18 10/3/16
f 9/40/17 8/38/19 12/43/20 11/41/18
f 8/38/19 7/36/21 13/45/22 12/43/20
f 7/36/21 6/34/23 14/47/24 13/45/22
f 6/34/23 5/32/25 15/48/26 14/47/24
f 5/32/25 4/30/27 16/49/28 15/48/26
f 4/30/27 3/28/29 17/50/30 16/49/28
f 3/28/29 2/1/2 18/7/1 17/50/30
f 27/8/3 26/64/31 30/65/32 29/17/4
f 26/64/31 25/62/33 31/66/34 30/65/32
f 25/62/33 24/60/35 32/67/36 31/66/34
f 24/60/35 23/58/37 33/68/38 32/67/36
f 23/58/37 22/56/39 34/69/40 33/68/38
f 22/56/39 21/54/41 35/71/42 34/69/40
f 21/54/41 20/52/43 36/73/44 35/71/42
f 20/52/43 19/4/10 28/9/9 36/73/44
f 44/10/13 43/85/45 47/86/46 46/2/14
f 43/85/45 42/83/47 48/88/48 47/86/46
f 42/83/47 41/81/49 49/90/50 48/88/48
f 41/81/49 40/79/51 50/93/52 49/90/50
f 40/78/51 39/77/53 51/94/54 50/92/52
f 39/77/53 38/76/55 52/95/56 51/94/54
f 38/76/55 37/75/57 53/96/58 52/95/56
f 37/75/57 45/14/6 54/11/5 53/96/58
f 62/12/7 61/107/59 66/108/60 65/26/8
f 61/107/59 60/106/61 67/109/62 66/108/60
f 60/106/61 59/105/63 68/110/64 67/109/62
f 59/105/63 58/103/65 69/112/66 68/110/64
f 58/104/65 57/102/67 70/113/68 69/111/66
f 57/102/67 56/100/69 71/115/70 70/113/68
f 56/100/69 55/98/71 72/117/72 71/115/70
f 55/98/71 63/5/12 64/13/11 72/117/72
s off
f 55/97/73 56/99/74 57/101/75 58/103/76 59/105/77 60/106/78 61/107/79 62/12/80 45/14/81 37/75/82 38/76/83 39/77/84 40/78/85 41/80/86 42/82/87 43/84/88 44/15/89 10/16/90 11/42/91 12/44/92 13/46/93 14/47/94 15/48/95 16/49/96 17/50/97 18/7/98 29/17/99 30/65/100 31/66/101 32/67/102 33/68/103 34/70/104 35/72/105 36/74/106 28/18/107 63/19/108
f 64/20/109 19/21/110 20/51/111 21/53/112 22/55/113 23/57/114 24/59/115 25/61/116 26/63/117 27/22/118 2/23/119 3/27/120 4/29/121 5/31/122 6/33/123 7/35/124 8/37/125 9/39/126 1/24/127 46/25/128 47/87/129 48/89/130 49/91/131 50/92/132 51/94/133 52/95/134 53/96/135 54/11/136 65/26/137 66/108/138 67/109/139 68/110/140 69/112/141 70/114/142 71/116/143 72/118/144
