# This file uses centimeters as units for non-parametric coordinates.

mtllib half_lens.mtl
g default
v 0.378049 0.000000 0.122174
v 0.356115 0.000000 0.049865
v 0.356115 0.500354 0.049865
v 0.378049 0.500354 0.122174
v 0.384541 0.000000 0.188083
v 0.384541 0.500354 0.188083
v 0.022426 0.000000 0.188083
v 0.046700 0.000000 0.188083
v 0.320495 0.000000 -0.016775
v 0.320495 0.500354 -0.016775
v 0.046700 0.500354 0.188083
v 0.022426 0.500354 0.188083
v 0.013902 0.000000 0.188083
v 0.272558 0.000000 -0.075186
v 0.272558 0.500354 -0.075186
v 0.013902 0.500354 0.188083
v 0.009289 0.000000 0.188083
v 0.214148 0.000000 -0.123122
v 0.214148 0.500354 -0.123122
v 0.009289 0.500354 0.188083
v 0.006207 0.000000 0.188083
v 0.147508 0.000000 -0.158742
v 0.147508 0.500354 -0.158742
v 0.006207 0.500354 0.188083
v 0.003848 0.000000 0.188083
v 0.075199 0.000000 -0.180677
v 0.075199 0.500354 -0.180677
v 0.003848 0.500354 0.188083
v 0.001848 0.000000 0.188083
v 0.000000 0.000000 -0.188083
v 0.000000 0.500354 -0.188083
v 0.001848 0.500354 0.188083
v -0.000000 0.000000 0.188083
v -0.075199 0.000000 -0.180677
v -0.075199 0.500354 -0.180677
v -0.000000 0.500354 0.188083
v -0.001848 0.000000 0.188083
v -0.147508 0.000000 -0.158742
v -0.147508 0.500354 -0.158742
v -0.001848 0.500354 0.188083
v -0.003848 0.000000 0.188083
v -0.214148 0.000000 -0.123122
v -0.214148 0.500354 -0.123122
v -0.003848 0.500354 0.188083
v -0.006207 0.000000 0.188083
v -0.272559 0.000000 -0.075186
v -0.272559 0.500354 -0.075186
v -0.006207 0.500354 0.188083
v -0.009289 0.000000 0.188083
v -0.320495 0.000000 -0.016775
v -0.320495 0.500354 -0.016775
v -0.009289 0.500354 0.188083
v -0.013902 0.000000 0.188083
v -0.356115 0.000000 0.049865
v -0.356115 0.500354 0.049865
v -0.013902 0.500354 0.188083
v -0.022426 0.000000 0.188083
v -0.378050 0.000000 0.122174
v -0.378050 0.500354 0.122174
v -0.022426 0.500354 0.188083
v -0.046700 0.000000 0.188083
v -0.384541 0.500354 0.188083
v -0.384541 0.000000 0.188083
v -0.046700 0.500354 0.188083
vt 0.375000 0.312500
vt 0.382813 0.312500
vt 0.382813 0.688440
vt 0.375000 0.688440
vt 0.618153 0.312500
vt 0.625000 0.312500
vt 0.625000 0.688440
vt 0.618153 0.688440
vt 0.509091 0.146628
vt 0.644356 0.096456
vt 0.653248 0.125767
vt 0.518931 0.147007
vt 0.390625 0.312500
vt 0.390625 0.688440
vt 0.518931 0.842038
vt 0.653248 0.874233
vt 0.644356 0.903544
vt 0.509091 0.841659
vt 0.655879 0.152484
vt 0.655879 0.847516
vt 0.505635 0.146506
vt 0.629917 0.069442
vt 0.398438 0.312500
vt 0.398438 0.688440
vt 0.629917 0.930558
vt 0.505635 0.841537
vt 0.503766 0.146448
vt 0.610485 0.045765
vt 0.406250 0.312500
vt 0.406250 0.688440
vt 0.610485 0.954235
vt 0.503766 0.841478
vt 0.502516 0.146416
vt 0.586808 0.026333
vt 0.414063 0.312500
vt 0.414063 0.688440
vt 0.586808 0.973667
vt 0.502516 0.841447
vt 0.501560 0.146398
vt 0.559794 0.011894
vt 0.421875 0.312500
vt 0.421875 0.688440
vt 0.559794 0.988106
vt 0.501560 0.841429
vt 0.500749 0.146388
vt 0.530483 0.003002
vt 0.429688 0.312500
vt 0.429688 0.688440
vt 0.530483 0.996998
vt 0.500749 0.841419
vt 0.500000 0.146385
vt 0.500000 0.000000
vt 0.437500 0.312500
vt 0.437500 0.688440
vt 0.500000 1.000000
vt 0.500000 0.841416
vt 0.499251 0.146388
vt 0.469517 0.003002
vt 0.445313 0.312500
vt 0.445313 0.688440
vt 0.469517 0.996998
vt 0.499251 0.841419
vt 0.498440 0.146398
vt 0.440206 0.011894
vt 0.453125 0.312500
vt 0.453125 0.688440
vt 0.440206 0.988106
vt 0.498440 0.841428
vt 0.497484 0.146416
vt 0.413192 0.026333
vt 0.460938 0.312500
vt 0.460938 0.688440
vt 0.413192 0.973667
vt 0.497484 0.841447
vt 0.496235 0.146448
vt 0.389515 0.045765
vt 0.468750 0.312500
vt 0.468750 0.688440
vt 0.389515 0.954235
vt 0.496234 0.841478
vt 0.494365 0.146506
vt 0.370083 0.069442
vt 0.476563 0.312500
vt 0.476563 0.688440
vt 0.370083 0.930558
vt 0.494365 0.841537
vt 0.490909 0.146628
vt 0.355644 0.096456
vt 0.484375 0.312500
vt 0.484375 0.688440
vt 0.355644 0.903544
vt 0.490909 0.841659
vt 0.481070 0.147007
vt 0.346752 0.125767
vt 0.491222 0.688440
vt 0.491222 0.312500
vt 0.346752 0.874233
vt 0.481070 0.842037
vt 0.344121 0.152484
vt 0.344121 0.847515
vt 0.501295 0.522444
vt 0.500766 0.522444
vt 0.500277 0.522444
vt 0.499789 0.522444
vt 0.499260 0.522444
vt 0.498636 0.522444
vt 0.497821 0.522444
vt 0.496602 0.522444
vt 0.494348 0.522444
vt 0.487930 0.522444
vt 0.398602 0.522444
vt 0.398602 0.722640
vt 0.487930 0.722640
vt 0.494348 0.722640
vt 0.496602 0.722640
vt 0.497821 0.722640
vt 0.498636 0.722640
vt 0.499260 0.722640
vt 0.499789 0.722640
vt 0.500277 0.722640
vt 0.500766 0.722640
vt 0.501295 0.722640
vt 0.501919 0.722640
vt 0.502734 0.722640
vt 0.503953 0.722640
vt 0.506207 0.722640
vt 0.512625 0.722640
vt 0.601953 0.722640
vt 0.601953 0.522444
vt 0.512625 0.522444
vt 0.506207 0.522444
vt 0.503953 0.522444
vt 0.502734 0.522444
vt 0.501919 0.522444
vn 0.979499 0.000000 -0.201448
vn 0.923880 0.000000 -0.382682
vn 0.923880 0.000000 -0.382682
vn 0.979499 0.000000 -0.201448
vn 0.995184 0.000000 -0.098023
vn 0.995184 0.000000 -0.098023
vn 0.000000 -1.000000 -0.000000
vn 0.000000 -1.000000 -0.000000
vn 0.000000 -1.000000 -0.000000
vn 0.000000 -1.000000 -0.000000
vn 0.831470 0.000000 -0.555570
vn 0.831470 0.000000 -0.555570
vn 0.000000 1.000000 -0.000001
vn 0.000000 1.000000 -0.000000
vn 0.000000 1.000000 0.000000
vn 0.000000 1.000000 0.000001
vn 0.000000 -1.000000 0.000000
vn 0.000000 1.000000 0.000000
vn 0.000000 -1.000000 0.000000
vn 0.000000 -1.000000 0.000000
vn 0.707107 0.000000 -0.707106
vn 0.707107 0.000000 -0.707106
vn 0.000000 1.000000 0.000000
vn 0.000000 1.000000 -0.000000
vn 0.000000 -1.000000 -0.000000
vn 0.000000 -1.000000 0.000000
vn 0.555571 0.000000 -0.831469
vn 0.555571 0.000000 -0.831469
vn 0.000000 1.000000 -0.000001
vn 0.000000 1.000000 -0.000001
vn 0.000000 -1.000000 0.000000
vn 0.000000 -1.000000 -0.000000
vn 0.382684 0.000000 -0.923879
vn 0.382684 0.000000 -0.923879
vn 0.000000 1.000000 -0.000000
vn 0.000000 1.000000 0.000000
vn 0.000000 -1.000000 0.000000
vn 0.000000 -1.000000 0.000000
vn 0.195091 0.000000 -0.980785
vn 0.195091 0.000000 -0.980785
vn 0.000000 1.000000 0.000000
vn 0.000000 1.000000 0.000000
vn 0.000000 -1.000000 -0.000000
vn 0.000000 -1.000000 -0.000000
vn 0.000000 0.000000 -1.000000
vn 0.000000 0.000000 -1.000000
vn 0.000000 1.000000 -0.000000
vn 0.000000 1.000000 -0.000000
vn 0.000000 -1.000000 -0.000000
vn 0.000000 -1.000000 -0.000000
vn -0.195089 0.000000 -0.980785
vn -0.195089 0.000000 -0.980785
vn 0.000000 1.000000 -0.000000
vn 0.000000 1.000000 -0.000000
vn 0.000000 -1.000000 0.000000
vn 0.000000 -1.000000 0.000000
vn -0.382683 0.000000 -0.923880
vn -0.382683 0.000000 -0.923880
vn 0.000000 1.000000 0.000000
vn 0.000000 1.000000 0.000000
vn 0.000000 -1.000000 0.000000
vn 0.000000 -1.000000 0.000000
vn -0.555570 0.000000 -0.831470
vn -0.555570 0.000000 -0.831470
vn 0.000000 1.000000 0.000000
vn 0.000000 1.000000 0.000000
vn 0.000000 -1.000000 0.000000
vn 0.000000 -1.000000 0.000000
vn -0.707107 0.000000 -0.707107
vn -0.707107 0.000000 -0.707107
vn 0.000000 1.000000 -0.000000
vn 0.000000 1.000000 -0.000000
vn 0.000000 -1.000000 -0.000000
vn 0.000000 -1.000000 -0.000000
vn -0.831469 0.000000 -0.555571
vn -0.831469 0.000000 -0.555571
vn 0.000000 1.000000 -0.000000
vn 0.000000 1.000000 -0.000000
vn 0.000000 -1.000000 -0.000000
vn 0.000000 -1.000000 -0.000000
vn -0.923879 0.000000 -0.382684
vn -0.923879 0.000000 -0.382684
vn 0.000000 1.000000 0.000000
vn 0.000000 1.000000 0.000000
vn 0.000000 -1.000000 0.000000
vn 0.000000 -1.000000 -0.000000
vn -0.979500 0.000000 -0.201445
vn -0.979500 0.000000 -0.201445
vn 0.000000 1.000000 -0.000000
vn 0.000000 1.000000 0.000000
vn 0.000000 -1.000000 -0.000000
vn 0.000000 -1.000000 -0.000000
vn -0.995185 0.000000 -0.098018
vn -0.995185 0.000000 -0.098018
vn 0.000000 1.000000 -0.000000
vn 0.000000 1.000000 -0.000001
vn 0.000000 -1.000000 0.000000
vn 0.000000 1.000000 0.000000
vn 0.000000 0.000000 1.000000
vn 0.000000 0.000000 1.000000
vn 0.000000 0.000000 1.000000
vn 0.000000 0.000000 1.000000
vn 0.000000 0.000000 1.000000
vn 0.000000 0.000000 1.000000
vn 0.000000 0.000000 1.000000
vn 0.000000 0.000000 1.000000
vn 0.000000 0.000000 1.000000
vn 0.000000 0.000000 1.000000
vn 0.000000 0.000000 1.000000
vn 0.000000 0.000000 1.000000
vn 0.000000 0.000000 1.000000
vn 0.000000 0.000000 1.000000
vn 0.000000 0.000000 1.000000
vn 0.000000 0.000000 1.000000
vn 0.000000 0.000000 1.000000
vn 0.000000 0.000000 1.000000
vn 0.000000 0.000000 1.000000
vn 0.000000 0.000000 1.000000
vn 0.000000 0.000000 1.000000
vn 0.000000 0.000000 1.000000
vn 0.000000 0.000000 1.000000
vn 0.000000 0.000000 1.000000
vn 0.000000 0.000000 1.000000
vn 0.000000 0.000000 1.000000
vn 0.000000 0.000000 1.000000
vn 0.000000 0.000000 1.000000
vn 0.000000 0.000000 1.000000
vn 0.000000 0.000000 1.000000
vn 0.000000 0.000000 1.000000
vn 0.000000 0.000000 1.000000
vn 0.000000 0.000000 1.000000
vn 0.000000 0.000000 1.000000
s 1
g StartLens
usemtl aiStandardSurface2SG
f 1/1/1 2/2/2 3/3/3 4/4/4
f 5/5/5 1/6/1 4/7/4 6/8/6
s 2
f 7/9/7 2/10/8 1/11/9 8/12/10
s 1
f 2/2/2 9/13/11 10/14/12 3/3/3
s 3
f 11/15/13 4/16/14 3/17/15 12/18/16
s 2
f 8/12/10 1/11/9 5/19/17
s 3
f 6/20/18 4/16/14 11/15/13
s 2
f 13/21/19 9/22/20 2/10/8 7/9/7
s 1
f 9/13/11 14/23/21 15/24/22 10/14/12
s 3
f 12/18/16 3/17/15 10/25/23 16/26/24
s 2
f 17/27/25 14/28/26 9/22/20 13/21/19
s 1
f 14/23/21 18/29/27 19/30/28 15/24/22
s 3
f 16/26/24 10/25/23 15/31/29 20/32/30
s 2
f 21/33/31 18/34/32 14/28/26 17/27/25
s 1
f 18/29/27 22/35/33 23/36/34 19/30/28
s 3
f 20/32/30 15/31/29 19/37/35 24/38/36
s 2
f 25/39/37 22/40/38 18/34/32 21/33/31
s 1
f 22/35/33 26/41/39 27/42/40 23/36/34
s 3
f 24/38/36 19/37/35 23/43/41 28/44/42
s 2
f 29/45/43 26/46/44 22/40/38 25/39/37
s 1
f 26/41/39 30/47/45 31/48/46 27/42/40
s 3
f 28/44/42 23/43/41 27/49/47 32/50/48
s 2
f 33/51/49 30/52/50 26/46/44 29/45/43
s 1
f 30/47/45 34/53/51 35/54/52 31/48/46
s 3
f 32/50/48 27/49/47 31/55/53 36/56/54
s 2
f 37/57/55 34/58/56 30/52/50 33/51/49
s 1
f 34/53/51 38/59/57 39/60/58 35/54/52
s 3
f 36/56/54 31/55/53 35/61/59 40/62/60
s 2
f 41/63/61 38/64/62 34/58/56 37/57/55
s 1
f 38/59/57 42/65/63 43/66/64 39/60/58
s 3
f 40/62/60 35/61/59 39/67/65 44/68/66
s 2
f 45/69/67 42/70/68 38/64/62 41/63/61
s 1
f 42/65/63 46/71/69 47/72/70 43/66/64
s 3
f 44/68/66 39/67/65 43/73/71 48/74/72
s 2
f 49/75/73 46/76/74 42/70/68 45/69/67
s 1
f 46/71/69 50/77/75 51/78/76 47/72/70
s 3
f 48/74/72 43/73/71 47/79/77 52/80/78
s 2
f 53/81/79 50/82/80 46/76/74 49/75/73
s 1
f 50/77/75 54/83/81 55/84/82 51/78/76
s 3
f 52/80/78 47/79/77 51/85/83 56/86/84
s 2
f 57/87/85 54/88/86 50/82/80 53/81/79
s 1
f 54/83/81 58/89/87 59/90/88 55/84/82
s 3
f 56/86/84 51/85/83 55/91/89 60/92/90
s 2
f 61/93/91 58/94/92 54/88/86 57/87/85
s 1
f 62/95/93 59/90/88 58/89/87 63/96/94
s 3
f 60/92/90 55/91/89 59/97/95 64/98/96
s 2
f 63/99/97 58/94/92 61/93/91
s 3
f 64/98/96 59/97/95 62/100/98
s off
f 28/101/99 32/102/100 36/103/101 40/104/102 44/105/103 48/106/104 52/107/105 56/108/106 60/109/107 64/110/108 62/111/109 63/112/110 61/113/111 57/114/112 53/115/113 49/116/114 45/117/115 41/118/116 37/119/117 33/120/118 29/121/119 25/122/120 21/123/121 17/124/122 13/125/123 7/126/124 8/127/125 5/128/126 6/129/127 11/130/128 12/131/129 16/132/130 20/133/131 24/134/132
